# xmcd
#
# Track frame offsets:
# 150
# 22463
# 38438
# 58429
# 75351
# 91432
# 109203
# 130130
# 149503
# 166277
# 184109
# 198020
# 219501
# 237564
# 254869
# 267720
# 283432
# 304185
# 324980
# 341635
#
# Disc length: 4786 seconds
#
#
# Revision: 0
# Processed by: cddbd v1.5.2PL0 Copyright (c) Steve Scherf et al.
# Submitted via: FreeRIP 2.96 
#
DISCID=3f12b014
DTITLE=Dave Dobbyn - Beside You
DYEAR=2009
DGENRE=Blues
TTITLE0=Be Mine Tonight
TTITLE1=Devil You Know
TTITLE2=Outlook For Thursday
TTITLE3=Magic What She Do
TTITLE4=Love You Like I Should
TTITLE5=Whaling
TTITLE6=Guilty
TTITLE7=Shaky Isles
TTITLE8=Beside You
TTITLE9=Belle Of The Ball
TTITLE10=Wild Kisses Like Rain
TTITLE11=Naked Flame
TTITLE12=Lap Of The Gods
TTITLE13=Just Add Water
TTITLE14=Maybe The Rain
TTITLE15=Language
TTITLE16=Loyal
TTITLE17=Slice Of Heaven
TTITLE18=You Oughta Be In Love
TTITLE19=Welcome Home
EXTD=
EXTT0=
EXTT1=
EXTT2=
EXTT3=
EXTT4=
EXTT5=
EXTT6=
EXTT7=
EXTT8=
EXTT9=
EXTT10=
EXTT11=
EXTT12=
EXTT13=
EXTT14=
EXTT15=
EXTT16=
EXTT17=
EXTT18=
EXTT19=
PLAYORDER=
